<svg width="18" height="16" viewBox="0 0 18 16" fill="none" xmlns="http://www.w3.org/2000/svg">
<path d="M17.6875 9.875C17.6875 10.1236 17.5887 10.3621 17.4129 10.5379C17.2371 10.7137 16.9986 10.8125 16.75 10.8125H15.8125V11.75C15.8125 11.9986 15.7137 12.2371 15.5379 12.4129C15.3621 12.5887 15.1236 12.6875 14.875 12.6875C14.6264 12.6875 14.3879 12.5887 14.2121 12.4129C14.0363 12.2371 13.9375 11.9986 13.9375 11.75V10.8125H13C12.7514 10.8125 12.5129 10.7137 12.3371 10.5379C12.1613 10.3621 12.0625 10.1236 12.0625 9.875C12.0625 9.62636 12.1613 9.3879 12.3371 9.21209C12.5129 9.03627 12.7514 8.9375 13 8.9375H13.9375V8C13.9375 7.75136 14.0363 7.5129 14.2121 7.33709C14.3879 7.16127 14.6264 7.0625 14.875 7.0625C15.1236 7.0625 15.3621 7.16127 15.5379 7.33709C15.7137 7.5129 15.8125 7.75136 15.8125 8V8.9375H16.75C16.9986 8.9375 17.2371 9.03627 17.4129 9.21209C17.5887 9.3879 17.6875 9.62636 17.6875 9.875ZM2.375 3.9375H3.3125V4.875C3.3125 5.12364 3.41127 5.3621 3.58709 5.53791C3.7629 5.71373 4.00136 5.8125 4.25 5.8125C4.49864 5.8125 4.7371 5.71373 4.91291 5.53791C5.08873 5.3621 5.1875 5.12364 5.1875 4.875V3.9375H6.125C6.37364 3.9375 6.6121 3.83873 6.78791 3.66291C6.96373 3.4871 7.0625 3.24864 7.0625 3C7.0625 2.75136 6.96373 2.5129 6.78791 2.33709C6.6121 2.16127 6.37364 2.0625 6.125 2.0625H5.1875V1.125C5.1875 0.87636 5.08873 0.637903 4.91291 0.462087C4.7371 0.286272 4.49864 0.1875 4.25 0.1875C4.00136 0.1875 3.7629 0.286272 3.58709 0.462087C3.41127 0.637903 3.3125 0.87636 3.3125 1.125V2.0625H2.375C2.12636 2.0625 1.8879 2.16127 1.71209 2.33709C1.53627 2.5129 1.4375 2.75136 1.4375 3C1.4375 3.24864 1.53627 3.4871 1.71209 3.66291C1.8879 3.83873 2.12636 3.9375 2.375 3.9375ZM12.375 12.6875H12.0625V12.375C12.0625 12.1264 11.9637 11.8879 11.7879 11.7121C11.6121 11.5363 11.3736 11.4375 11.125 11.4375C10.8764 11.4375 10.6379 11.5363 10.4621 11.7121C10.2863 11.8879 10.1875 12.1264 10.1875 12.375V12.6875H9.875C9.62636 12.6875 9.3879 12.7863 9.21209 12.9621C9.03627 13.1379 8.9375 13.3764 8.9375 13.625C8.9375 13.8736 9.03627 14.1121 9.21209 14.2879C9.3879 14.4637 9.62636 14.5625 9.875 14.5625H10.1875V14.875C10.1875 15.1236 10.2863 15.3621 10.4621 15.5379C10.6379 15.7137 10.8764 15.8125 11.125 15.8125C11.3736 15.8125 11.6121 15.7137 11.7879 15.5379C11.9637 15.3621 12.0625 15.1236 12.0625 14.875V14.5625H12.375C12.6236 14.5625 12.8621 14.4637 13.0379 14.2879C13.2137 14.1121 13.3125 13.8736 13.3125 13.625C13.3125 13.3764 13.2137 13.1379 13.0379 12.9621C12.8621 12.7863 12.6236 12.6875 12.375 12.6875ZM15.3547 4.47109L4.47031 15.3547C4.1773 15.6476 3.77994 15.8122 3.36562 15.8122C2.9513 15.8122 2.55395 15.6476 2.26094 15.3547L0.64453 13.7391C0.499371 13.594 0.384222 13.4217 0.30566 13.2321C0.227097 13.0425 0.186661 12.8392 0.186661 12.634C0.186661 12.4287 0.227097 12.2255 0.30566 12.0359C0.384222 11.8463 0.499371 11.674 0.64453 11.5289L11.5289 0.645313C11.8219 0.352389 12.2193 0.187834 12.6336 0.187834C13.0479 0.187834 13.4453 0.352389 13.7383 0.645313L15.3547 2.26094C15.4998 2.40604 15.615 2.57831 15.6936 2.76793C15.7721 2.95754 15.8126 3.16077 15.8126 3.36602C15.8126 3.57126 15.7721 3.77449 15.6936 3.9641C15.615 4.15372 15.4998 4.32599 15.3547 4.47109ZM10.4219 6.75L9.25 5.57812L2.19141 12.6336L3.36328 13.8055L10.4219 6.75ZM13.8055 3.36641L12.6336 2.19453L10.5781 4.25L11.75 5.42188L13.8055 3.36641Z" fill="white"/>
</svg>
