<svg width="20" height="20" viewBox="0 0 20 20" fill="none" xmlns="http://www.w3.org/2000/svg">
<g id="More">
<path id="Border" d="M10.0333 19.1C15.055 19.1 19.1258 15.0257 19.1258 10C19.1258 4.97429 15.055 0.9 10.0333 0.9C5.01155 0.9 0.940771 4.97429 0.940771 10C0.940771 15.0257 5.01155 19.1 10.0333 19.1Z" stroke="#5C5C5C" stroke-width="0.2"/>
<g id="chevron-down">
<path id="Shape" d="M10.0334 10.7929L7.7669 8.14645C7.59967 7.95118 7.32854 7.95118 7.16131 8.14645C6.99408 8.34171 6.99408 8.65829 7.16131 8.85355L9.7306 11.8536C9.89783 12.0488 10.169 12.0488 10.3362 11.8536L12.9055 8.85355C13.0727 8.65829 13.0727 8.34171 12.9055 8.14645C12.7382 7.95118 12.4671 7.95118 12.2999 8.14645L10.0334 10.7929Z" fill="#565656"/>
</g>
</g>
</svg>
