<svg width="16" height="14" viewBox="0 0 16 14" fill="none" xmlns="http://www.w3.org/2000/svg">
<path d="M1.125 4.1875H3.47344C3.66734 4.73578 4.02645 5.21048 4.50131 5.54622C4.97617 5.88196 5.54344 6.06225 6.125 6.06225C6.70656 6.06225 7.27383 5.88196 7.74869 5.54622C8.22355 5.21048 8.58266 4.73578 8.77656 4.1875H14.875C15.1236 4.1875 15.3621 4.08872 15.5379 3.91291C15.7137 3.73709 15.8125 3.49864 15.8125 3.25C15.8125 3.00136 15.7137 2.7629 15.5379 2.58708C15.3621 2.41127 15.1236 2.3125 14.875 2.3125H8.77656C8.58266 1.76421 8.22355 1.28952 7.74869 0.953771C7.27383 0.618027 6.70656 0.437744 6.125 0.437744C5.54344 0.437744 4.97617 0.618027 4.50131 0.953771C4.02645 1.28952 3.66734 1.76421 3.47344 2.3125H1.125C0.87636 2.3125 0.637903 2.41127 0.462087 2.58708C0.286272 2.7629 0.1875 3.00136 0.1875 3.25C0.1875 3.49864 0.286272 3.73709 0.462087 3.91291C0.637903 4.08872 0.87636 4.1875 1.125 4.1875ZM6.125 2.3125C6.31042 2.3125 6.49168 2.36748 6.64585 2.47049C6.80002 2.57351 6.92018 2.71992 6.99114 2.89123C7.06209 3.06254 7.08066 3.25104 7.04449 3.43289C7.00831 3.61475 6.91902 3.7818 6.78791 3.91291C6.6568 4.04402 6.48975 4.13331 6.3079 4.16948C6.12604 4.20566 5.93754 4.18709 5.76623 4.11613C5.59493 4.04518 5.44851 3.92501 5.3455 3.77084C5.24248 3.61667 5.1875 3.43542 5.1875 3.25C5.1875 3.00136 5.28627 2.7629 5.46209 2.58708C5.6379 2.41127 5.87636 2.3125 6.125 2.3125ZM14.875 9.8125H13.7766C13.5827 9.26421 13.2236 8.78952 12.7487 8.45377C12.2738 8.11803 11.7066 7.93774 11.125 7.93774C10.5434 7.93774 9.97617 8.11803 9.50131 8.45377C9.02645 8.78952 8.66734 9.26421 8.47344 9.8125H1.125C0.87636 9.8125 0.637903 9.91127 0.462087 10.0871C0.286272 10.2629 0.1875 10.5014 0.1875 10.75C0.1875 10.9986 0.286272 11.2371 0.462087 11.4129C0.637903 11.5887 0.87636 11.6875 1.125 11.6875H8.47344C8.66734 12.2358 9.02645 12.7105 9.50131 13.0462C9.97617 13.382 10.5434 13.5622 11.125 13.5622C11.7066 13.5622 12.2738 13.382 12.7487 13.0462C13.2236 12.7105 13.5827 12.2358 13.7766 11.6875H14.875C15.1236 11.6875 15.3621 11.5887 15.5379 11.4129C15.7137 11.2371 15.8125 10.9986 15.8125 10.75C15.8125 10.5014 15.7137 10.2629 15.5379 10.0871C15.3621 9.91127 15.1236 9.8125 14.875 9.8125ZM11.125 11.6875C10.9396 11.6875 10.7583 11.6325 10.6042 11.5295C10.45 11.4265 10.3298 11.2801 10.2589 11.1088C10.1879 10.9375 10.1693 10.749 10.2055 10.5671C10.2417 10.3852 10.331 10.2182 10.4621 10.0871C10.5932 9.95597 10.7602 9.86668 10.9421 9.83051C11.124 9.79434 11.3125 9.8129 11.4838 9.88386C11.6551 9.95482 11.8015 10.075 11.9045 10.2291C12.0075 10.3833 12.0625 10.5646 12.0625 10.75C12.0625 10.9986 11.9637 11.2371 11.7879 11.4129C11.6121 11.5887 11.3736 11.6875 11.125 11.6875Z" fill="#475569"/>
</svg>
