<svg width="20" height="17" viewBox="0 0 20 17" fill="none" xmlns="http://www.w3.org/2000/svg">
<path d="M18.1844 9.77188C17.9143 9.56503 17.6004 9.42307 17.2667 9.35696C16.933 9.29085 16.5887 9.30237 16.2602 9.39062L13.4375 10.0359C13.4375 10.0031 13.4375 9.97031 13.4375 9.9375C13.4375 9.27446 13.1741 8.63857 12.7053 8.16973C12.2364 7.70089 11.6005 7.4375 10.9375 7.4375H7.02656C6.65717 7.43649 6.29124 7.50875 5.94995 7.65009C5.60867 7.79143 5.2988 7.99905 5.03828 8.26094L3.35938 9.9375H1.5625C1.1481 9.9375 0.750671 10.1021 0.457646 10.3951C0.16462 10.6882 0 11.0856 0 11.5L0 14.625C0 15.0394 0.16462 15.4368 0.457646 15.7299C0.750671 16.0229 1.1481 16.1875 1.5625 16.1875H9.375C9.45165 16.1875 9.52801 16.1781 9.60234 16.1594L14.6023 14.9094C14.6502 14.8976 14.6969 14.882 14.7422 14.8625L17.775 13.5703C17.793 13.5633 17.8102 13.5555 17.8273 13.5469C18.1665 13.3772 18.457 13.124 18.6713 12.8111C18.8856 12.4982 19.0168 12.1359 19.0525 11.7584C19.0882 11.3808 19.0273 11.0003 18.8754 10.6528C18.7235 10.3053 18.4857 10.0021 18.1844 9.77188ZM2.8125 14.3125H1.875V11.8125H2.8125V14.3125ZM17.0062 11.8602L14.0758 13.1102L9.25937 14.3125H4.6875V11.2656L6.36406 9.58906C6.45072 9.50146 6.5539 9.43191 6.66762 9.38443C6.78133 9.33696 6.90334 9.31251 7.02656 9.3125H10.9375C11.1033 9.3125 11.2622 9.37835 11.3794 9.49556C11.4967 9.61277 11.5625 9.77174 11.5625 9.9375C11.5625 10.1033 11.4967 10.2622 11.3794 10.3794C11.2622 10.4967 11.1033 10.5625 10.9375 10.5625H8.75C8.50136 10.5625 8.2629 10.6613 8.08709 10.8371C7.91127 11.0129 7.8125 11.2514 7.8125 11.5C7.8125 11.7486 7.91127 11.9871 8.08709 12.1629C8.2629 12.3387 8.50136 12.4375 8.75 12.4375H11.25C11.3207 12.4375 11.3912 12.4297 11.4602 12.4141L16.6945 11.2102L16.7313 11.2008C16.7846 11.1863 16.8406 11.1842 16.8949 11.1948C16.9492 11.2055 17.0003 11.2284 17.0442 11.262C17.0882 11.2955 17.1239 11.3387 17.1484 11.3883C17.173 11.4378 17.1858 11.4924 17.1859 11.5477C17.1863 11.611 17.1699 11.6733 17.1383 11.7282C17.1068 11.7831 17.0612 11.8286 17.0062 11.8602ZM12.8125 6.8125C12.9478 6.81234 13.083 6.80347 13.2172 6.78594C13.4958 7.2798 13.9036 7.68854 14.3968 7.96836C14.8899 8.24818 15.45 8.38854 16.0168 8.3744C16.5837 8.36026 17.136 8.19214 17.6147 7.88807C18.0933 7.584 18.4801 7.15543 18.7338 6.64829C18.9874 6.14115 19.0983 5.57455 19.0546 5.0092C19.0108 4.44385 18.814 3.90107 18.4854 3.439C18.1567 2.97694 17.7085 2.61301 17.1888 2.38621C16.6691 2.15942 16.0974 2.0783 15.5352 2.15156C15.2649 1.67275 14.8732 1.27371 14.3994 0.994725C13.9257 0.715735 13.3867 0.566673 12.8369 0.562586C12.2871 0.558499 11.746 0.699532 11.2681 0.971447C10.7903 1.24336 10.3926 1.63653 10.1153 2.11127C9.83799 2.58601 9.69083 3.12551 9.68869 3.6753C9.68654 4.2251 9.82948 4.76573 10.1031 5.24262C10.3767 5.7195 10.7713 6.11577 11.247 6.39141C11.7227 6.66704 12.2627 6.8123 12.8125 6.8125ZM15.9375 4C16.1847 4 16.4264 4.07331 16.632 4.21066C16.8375 4.34801 16.9977 4.54324 17.0924 4.77165C17.187 5.00005 17.2117 5.25139 17.1635 5.49386C17.1152 5.73634 16.9962 5.95907 16.8214 6.13388C16.6466 6.3087 16.4238 6.42775 16.1814 6.47598C15.9389 6.52421 15.6876 6.49946 15.4591 6.40485C15.2307 6.31024 15.0355 6.15002 14.8982 5.94446C14.7608 5.7389 14.6875 5.49723 14.6875 5.25C14.6875 4.91848 14.8192 4.60054 15.0536 4.36612C15.288 4.1317 15.606 4 15.9375 4ZM12.8125 2.4375C13.0096 2.43741 13.2039 2.48394 13.3796 2.57328C13.5553 2.66262 13.7074 2.79224 13.8234 2.95156C13.259 3.46885 12.9048 4.17576 12.8281 4.9375H12.8125C12.481 4.9375 12.163 4.8058 11.9286 4.57138C11.6942 4.33696 11.5625 4.01902 11.5625 3.6875C11.5625 3.35598 11.6942 3.03804 11.9286 2.80362C12.163 2.5692 12.481 2.4375 12.8125 2.4375Z" fill="#475569"/>
</svg>
