<svg width="36" height="15" viewBox="0 0 36 15" fill="none" xmlns="http://www.w3.org/2000/svg">
<path d="M0.567265 15V0.0999987H3.66727V15H0.567265ZM5.88945 15V4.08H8.68945V6.24L8.52945 5.76C8.78279 5.10667 9.18945 4.62667 9.74945 4.32C10.3228 4 10.9895 3.84 11.7495 3.84C12.5761 3.84 13.2961 4.01333 13.9095 4.36C14.5361 4.70667 15.0228 5.19333 15.3695 5.82C15.7161 6.43333 15.8895 7.15333 15.8895 7.98V15H12.8895V8.62C12.8895 8.19333 12.8028 7.82667 12.6295 7.52C12.4695 7.21333 12.2361 6.97333 11.9295 6.8C11.6361 6.62667 11.2895 6.54 10.8895 6.54C10.5028 6.54 10.1561 6.62667 9.84945 6.8C9.54279 6.97333 9.30279 7.21333 9.12945 7.52C8.96945 7.82667 8.88945 8.19333 8.88945 8.62V15H5.88945Z" fill="#4F46E5"/>
<path d="M16.7821 15L21.8221 0.0999987H25.9421L30.9821 15H27.6021L26.6021 11.96H21.1421L20.1421 15H16.7821ZM22.0021 9.26H25.7421L23.4621 2.22H24.3021L22.0021 9.26ZM32.3305 15V0.0999987H35.4305V15H32.3305Z" fill="#475569"/>
</svg>
