<svg width="11" height="18" viewBox="0 0 11 18" fill="none" xmlns="http://www.w3.org/2000/svg">
<path d="M10.2959 9.7959L2.7959 17.2959C2.58455 17.5072 2.29791 17.626 1.99902 17.626C1.70014 17.626 1.41349 17.5072 1.20215 17.2959C0.990802 17.0846 0.87207 16.7979 0.87207 16.499C0.87207 16.2001 0.990802 15.9135 1.20215 15.7021L7.90621 8.99996L1.20402 2.2959C1.09937 2.19125 1.01636 2.06702 0.959729 1.93029C0.903095 1.79356 0.873945 1.64702 0.873945 1.49902C0.873945 1.35103 0.903095 1.20448 0.959729 1.06776C1.01636 0.931028 1.09937 0.806794 1.20402 0.702147C1.30867 0.5975 1.4329 0.514489 1.56963 0.457855C1.70636 0.40122 1.8529 0.37207 2.0009 0.37207C2.14889 0.37207 2.29543 0.40122 2.43216 0.457855C2.56889 0.514489 2.69312 0.5975 2.79777 0.702147L10.2978 8.20215C10.4025 8.30679 10.4856 8.43108 10.5422 8.56789C10.5988 8.7047 10.6279 8.85135 10.6277 8.99941C10.6275 9.14748 10.5981 9.29405 10.5412 9.43073C10.4843 9.56741 10.4009 9.6915 10.2959 9.7959Z" fill="white"/>
</svg>
