<svg width="48" height="48" viewBox="0 0 48 48" fill="none" xmlns="http://www.w3.org/2000/svg">
<rect width="48" height="48" rx="24" fill="#EEF2FF"/>
<path d="M29.2959 24.7959L21.7959 32.2959C21.5846 32.5072 21.2979 32.626 20.999 32.626C20.7001 32.626 20.4135 32.5072 20.2021 32.2959C19.9908 32.0846 19.8721 31.7979 19.8721 31.499C19.8721 31.2001 19.9908 30.9135 20.2021 30.7021L26.9062 24L20.204 17.2959C20.0994 17.1912 20.0164 17.067 19.9597 16.9303C19.9031 16.7936 19.8739 16.647 19.8739 16.499C19.8739 16.351 19.9031 16.2045 19.9597 16.0678C20.0164 15.931 20.0994 15.8068 20.204 15.7021C20.3087 15.5975 20.4329 15.5145 20.5696 15.4579C20.7064 15.4012 20.8529 15.3721 21.0009 15.3721C21.1489 15.3721 21.2954 15.4012 21.4322 15.4579C21.5689 15.5145 21.6931 15.5975 21.7978 15.7021L29.2978 23.2021C29.4025 23.3068 29.4856 23.4311 29.5422 23.5679C29.5988 23.7047 29.6279 23.8513 29.6277 23.9994C29.6275 24.1475 29.5981 24.2941 29.5412 24.4307C29.4843 24.5674 29.4009 24.6915 29.2959 24.7959Z" fill="#475569"/>
</svg>
