<svg width="12" height="8" viewBox="0 0 12 8" fill="none" xmlns="http://www.w3.org/2000/svg">
<path d="M11.4375 0.625V3.625C11.4375 3.77418 11.3782 3.91726 11.2727 4.02275C11.1672 4.12824 11.0242 4.1875 10.875 4.1875C10.7258 4.1875 10.5827 4.12824 10.4772 4.02275C10.3717 3.91726 10.3125 3.77418 10.3125 3.625V1.98438L6.77295 5.52437C6.72069 5.57682 6.65859 5.61842 6.59022 5.64681C6.52185 5.6752 6.44854 5.68982 6.37451 5.68982C6.30048 5.68982 6.22717 5.6752 6.1588 5.64681C6.09043 5.61842 6.02833 5.57682 5.97607 5.52437L4.49998 4.04688L1.52295 7.02297C1.41728 7.12864 1.27395 7.18801 1.12451 7.18801C0.975068 7.18801 0.831746 7.12864 0.726073 7.02297C0.620401 6.9173 0.561035 6.77397 0.561035 6.62453C0.561035 6.47509 0.620401 6.33177 0.726073 6.22609L4.10107 2.85109C4.15333 2.79865 4.21543 2.75705 4.2838 2.72866C4.35217 2.70026 4.42548 2.68565 4.49951 2.68565C4.57354 2.68565 4.64685 2.70026 4.71522 2.72866C4.78359 2.75705 4.84569 2.79865 4.89795 2.85109L6.37498 4.32812L9.5156 1.1875H7.87498C7.7258 1.1875 7.58272 1.12824 7.47723 1.02275C7.37174 0.917258 7.31248 0.774184 7.31248 0.625C7.31248 0.475816 7.37174 0.332742 7.47723 0.227252C7.58272 0.121763 7.7258 0.0625 7.87498 0.0625H10.875C11.0242 0.0625 11.1672 0.121763 11.2727 0.227252C11.3782 0.332742 11.4375 0.475816 11.4375 0.625Z" fill="#22C55E"/>
</svg>
