<svg width="20" height="16" viewBox="0 0 20 16" fill="none" xmlns="http://www.w3.org/2000/svg">
<path d="M15.3507 9.83672C15.5269 10.0128 15.6258 10.2517 15.6258 10.5008C15.6258 10.7499 15.5269 10.9887 15.3507 11.1648C15.1746 11.341 14.9358 11.4399 14.6867 11.4399C14.4376 11.4399 14.1987 11.341 14.0226 11.1648L13.125 10.2656V14.25C13.125 14.4986 13.0262 14.7371 12.8504 14.9129C12.6746 15.0887 12.4361 15.1875 12.1875 15.1875C11.9388 15.1875 11.7004 15.0887 11.5246 14.9129C11.3487 14.7371 11.25 14.4986 11.25 14.25V10.2656L10.3507 11.1656C10.1746 11.3417 9.93575 11.4407 9.68668 11.4407C9.43761 11.4407 9.19874 11.3417 9.02262 11.1656C8.8465 10.9895 8.74756 10.7506 8.74756 10.5016C8.74756 10.2525 8.8465 10.0136 9.02262 9.8375L11.5226 7.3375C11.6097 7.2501 11.7132 7.18075 11.8272 7.13344C11.9411 7.08612 12.0633 7.06176 12.1867 7.06176C12.3101 7.06176 12.4322 7.08612 12.5462 7.13344C12.6602 7.18075 12.7636 7.2501 12.8507 7.3375L15.3507 9.83672ZM12.5 0.8125C11.2024 0.813123 9.9292 1.16468 8.81517 1.82994C7.70114 2.49519 6.78778 3.44937 6.17184 4.59141C5.45451 4.51627 4.72939 4.588 4.04068 4.8022C3.35197 5.01641 2.71409 5.36861 2.16591 5.83734C1.61774 6.30608 1.17075 6.88152 0.852191 7.52862C0.533633 8.17571 0.350176 8.88089 0.313 9.60118C0.275825 10.3215 0.385711 11.0418 0.63596 11.7183C0.886209 12.3947 1.27158 13.0131 1.76859 13.5358C2.2656 14.0585 2.86383 14.4745 3.52683 14.7584C4.18983 15.0424 4.90371 15.1884 5.62496 15.1875H7.81246C8.0611 15.1875 8.29956 15.0887 8.47538 14.9129C8.65119 14.7371 8.74996 14.4986 8.74996 14.25C8.74996 14.0014 8.65119 13.7629 8.47538 13.5871C8.29956 13.4113 8.0611 13.3125 7.81246 13.3125H5.62496C4.72919 13.307 3.87095 12.9521 3.23297 12.3232C2.595 11.6944 2.22769 10.8414 2.20926 9.94579C2.19083 9.05019 2.52273 8.18278 3.13429 7.52824C3.74586 6.8737 4.58877 6.48375 5.48356 6.44141C5.36967 6.95311 5.3123 7.47577 5.31246 8C5.31246 8.24864 5.41124 8.4871 5.58705 8.66291C5.76287 8.83873 6.00132 8.9375 6.24996 8.9375C6.4986 8.9375 6.73706 8.83873 6.91288 8.66291C7.08869 8.4871 7.18746 8.24864 7.18746 8C7.18811 7.23149 7.35548 6.47228 7.67803 5.77474C8.00059 5.0772 8.47064 4.45794 9.05575 3.9597C9.64087 3.46146 10.3271 3.0961 11.0671 2.88883C11.8072 2.68156 12.5834 2.63731 13.3421 2.75914C14.1009 2.88097 14.8243 3.16597 15.4622 3.59449C16.1001 4.02301 16.6375 4.58483 17.0373 5.2412C17.437 5.89756 17.6896 6.63284 17.7775 7.39629C17.8655 8.15975 17.7868 8.9332 17.5468 9.66328C17.5083 9.78024 17.4932 9.90364 17.5024 10.0264C17.5115 10.1492 17.5448 10.269 17.6003 10.379C17.6557 10.4889 17.7323 10.5869 17.8256 10.6672C17.9189 10.7476 18.0271 10.8087 18.1441 10.8473C18.2611 10.8858 18.3845 10.9009 18.5073 10.8917C18.6301 10.8826 18.7499 10.8493 18.8598 10.7938C18.9697 10.7384 19.0677 10.6618 19.148 10.5685C19.2284 10.4752 19.2896 10.367 19.3281 10.25C19.6829 9.17017 19.7768 8.02161 19.602 6.89849C19.4272 5.77538 18.9886 4.70969 18.3224 3.7888C17.6561 2.86791 16.781 2.11805 15.769 1.60069C14.7569 1.08334 13.6366 0.813227 12.5 0.8125Z" fill="#475569"/>
</svg>
